<?xml version="1.0" encoding="UTF-8" standalone="no"?>
<!DOCTYPE svg PUBLIC "-//W3C//DTD SVG 1.1//EN" "http://www.w3.org/Graphics/SVG/1.1/DTD/svg11.dtd">
<svg width="100%" height="100%" viewBox="0 0 5700 3600" version="1.1" xmlns="http://www.w3.org/2000/svg" xmlns:xlink="http://www.w3.org/1999/xlink" xml:space="preserve" xmlns:serif="http://www.serif.com/" style="fill-rule:evenodd;clip-rule:evenodd;stroke-linejoin:round;stroke-miterlimit:2;">
    <g transform="matrix(1,0,0,1,121.585,140.145)">
        <g transform="matrix(1.24659,-2.48065e-16,2.48065e-16,1.24659,-935.644,650.406)">
            <path d="M5082.97,507.336C5097.65,705.228 5121.89,1438.25 5121.38,1466.87C5120.84,1496.7 5105.1,1549.96 5080.45,1613.71C5023.47,1761.1 4919.14,1965.21 4850.22,2063.76C4835.22,2085.21 4821.85,2101.71 4810.98,2111.69C4802.74,2119.26 4795.54,2123.16 4790.08,2123.56C4746.03,2126.83 4610.12,2130.7 4401.52,2133.64C4399.84,2133.67 4398.22,2133.08 4396.8,2131.57C4395.76,2130.47 4394.68,2128.29 4393.71,2125.45C4392.7,2122.51 4391.57,2118.57 4389.45,2115.4C4387.96,2113.19 4385.87,2111.41 4382.54,2111.46C4374.83,2111.57 4374.33,2118.13 4373.07,2121.73C4371.44,2126.42 4368.69,2128.79 4365.26,2128.83C4360.69,2128.89 4357.7,2128.95 4353.08,2129.01C4350.05,2129.05 4347,2127.03 4344.38,2123.13C4343.08,2121.21 4341.74,2118.77 4340.02,2116.56C4338.25,2114.29 4336.03,2112.16 4332.46,2112.29C4324.22,2112.57 4322.82,2119.32 4320.97,2123.05C4318.89,2127.25 4316.12,2129.45 4312.76,2129.49C4309.09,2129.53 4303.8,2129.57 4300.1,2129.62C4297.93,2129.65 4295.58,2128.53 4293.94,2125.36C4293.34,2124.19 4292.73,2122.49 4291.86,2120.68C4290.54,2117.95 4288.27,2114.84 4282.73,2114.98C4277.92,2115.1 4275.24,2117.8 4273.47,2120.8C4271.91,2123.44 4270.94,2126.31 4270.06,2128.57C4268.98,2131.32 4267.81,2133.4 4266.65,2134.48C4265.3,2135.74 4263.8,2136.3 4262.19,2136.32C3522.8,2144.94 2269.08,2145.2 2159.04,2121.42C2129.97,2115.14 2102.98,2097.36 2079.52,2074.69C2044.9,2041.23 2017.93,1997.18 2002.99,1965.09C1979.58,1914.78 1991.6,1855.38 2004.68,1802.93C2015.22,1760.63 2058.49,1691.1 2122.22,1608.74C2269.85,1417.98 2527.23,1157.29 2735.8,1005.51C3358.95,552.028 4149.74,310.422 4634.21,316.823C4777.08,318.71 4906.03,341.473 4988.32,385.883C5044.57,416.24 5079.22,456.794 5082.97,507.336ZM5077.97,507.707C5068.88,385.288 4870.69,324.961 4634.15,321.836C4150.43,315.445 3360.93,556.792 2738.74,1009.57C2441.28,1226.04 2044.37,1664.41 2009.54,1804.14C1996.73,1855.52 1984.61,1913.69 2007.54,1962.97C2032.09,2015.73 2089.58,2101.28 2160.1,2116.52C2270.09,2140.29 3523.14,2139.92 4262.14,2131.3C4266.57,2131.25 4266.05,2110.37 4282.61,2109.97C4297.48,2109.61 4296.77,2124.65 4300.04,2124.61C4303.74,2124.56 4309.03,2124.52 4312.7,2124.47C4318.34,2124.4 4316.72,2107.8 4332.29,2107.28C4345.25,2106.84 4347.45,2124.07 4353.02,2124C4357.64,2123.94 4360.62,2123.88 4365.19,2123.82C4370.49,2123.75 4367,2106.67 4382.46,2106.44C4397.71,2106.22 4397.41,2128.69 4401.45,2128.63C4609.89,2125.69 4745.69,2121.83 4789.71,2118.56C4848.67,2114.19 5114.17,1589.62 5116.36,1466.78C5116.88,1438.17 5092.64,705.504 5077.97,507.707Z"/>
        </g>
        <g transform="matrix(0.99922,-0.0395014,0.0395014,0.99922,-36.7697,167.043)">
            <path d="M5286.94,1816.27L5286.94,2096.07C5286.94,2108.5 5276.85,2118.59 5264.42,2118.59L5231.89,2118.59C5219.46,2118.59 5209.37,2108.5 5209.37,2096.07L5209.37,1816.27C5209.37,1803.84 5219.46,1793.75 5231.89,1793.75L5264.42,1793.75C5276.85,1793.75 5286.94,1803.84 5286.94,1816.27ZM5280.69,1816.27C5280.69,1807.29 5273.4,1800 5264.42,1800L5231.89,1800C5222.91,1800 5215.62,1807.29 5215.62,1816.27L5215.62,2096.07C5215.62,2105.05 5222.91,2112.34 5231.89,2112.34L5264.42,2112.34C5273.4,2112.34 5280.69,2105.05 5280.69,2096.07L5280.69,1816.27Z"/>
        </g>
        <g transform="matrix(0.648622,0,0,0.648622,537.012,976.874)">
            <path d="M2087.11,2817.67C2251.98,2817.67 2385.82,2951.51 2385.82,3116.38C2385.82,3281.24 2251.98,3415.09 2087.11,3415.09C1922.25,3415.09 1788.4,3281.24 1788.4,3116.38C1788.4,2951.51 1922.25,2817.67 2087.11,2817.67ZM2087.11,2827.3C1927.57,2827.3 1798.04,2956.83 1798.04,3116.38C1798.04,3275.92 1927.57,3405.45 2087.11,3405.45C2246.66,3405.45 2376.19,3275.92 2376.19,3116.38C2376.19,2956.83 2246.66,2827.3 2087.11,2827.3Z"/>
        </g>
        <g transform="matrix(0.361284,0,0,0.361284,1891.65,2127.1)">
            <path d="M2652.63,2757.18C2705.14,2757.18 2747.77,2799.81 2747.77,2852.32C2747.77,2904.84 2705.14,2947.47 2652.63,2947.47C2600.11,2947.47 2557.48,2904.84 2557.48,2852.32C2557.48,2799.81 2600.11,2757.18 2652.63,2757.18ZM2652.63,2774.47C2609.66,2774.47 2574.78,2809.36 2574.78,2852.32C2574.78,2895.29 2609.66,2930.17 2652.63,2930.17C2695.59,2930.17 2730.47,2895.29 2730.47,2852.32C2730.47,2809.36 2695.59,2774.47 2652.63,2774.47Z"/>
        </g>
        <g transform="matrix(0.361284,0,0,0.361284,1891.65,1977.13)">
            <path d="M2652.63,2757.18C2705.14,2757.18 2747.77,2799.81 2747.77,2852.32C2747.77,2904.84 2705.14,2947.47 2652.63,2947.47C2600.11,2947.47 2557.48,2904.84 2557.48,2852.32C2557.48,2799.81 2600.11,2757.18 2652.63,2757.18ZM2652.63,2774.47C2609.66,2774.47 2574.78,2809.36 2574.78,2852.32C2574.78,2895.29 2609.66,2930.17 2652.63,2930.17C2695.59,2930.17 2730.47,2895.29 2730.47,2852.32C2730.47,2809.36 2695.59,2774.47 2652.63,2774.47Z"/>
        </g>
        <g transform="matrix(0.192685,0,0,0.192685,3088.88,1100.4)">
            <path d="M2652.63,2742.04C2713.49,2742.04 2762.91,2791.45 2762.91,2852.32C2762.91,2913.19 2713.49,2962.61 2652.63,2962.61C2591.76,2962.61 2542.34,2913.19 2542.34,2852.32C2542.34,2791.45 2591.76,2742.04 2652.63,2742.04ZM2652.63,2774.47C2609.66,2774.47 2574.78,2809.36 2574.78,2852.32C2574.78,2895.29 2609.66,2930.17 2652.63,2930.17C2695.59,2930.17 2730.47,2895.29 2730.47,2852.32C2730.47,2809.36 2695.59,2774.47 2652.63,2774.47Z"/>
        </g>
        <g transform="matrix(0.192685,0,0,0.192685,4288.88,800.401)">
            <path d="M2652.63,2742.04C2713.49,2742.04 2762.91,2791.45 2762.91,2852.32C2762.91,2913.19 2713.49,2962.61 2652.63,2962.61C2591.76,2962.61 2542.34,2913.19 2542.34,2852.32C2542.34,2791.45 2591.76,2742.04 2652.63,2742.04ZM2652.63,2774.47C2609.66,2774.47 2574.78,2809.36 2574.78,2852.32C2574.78,2895.29 2609.66,2930.17 2652.63,2930.17C2695.59,2930.17 2730.47,2895.29 2730.47,2852.32C2730.47,2809.36 2695.59,2774.47 2652.63,2774.47Z"/>
        </g>
        <g transform="matrix(0.192685,0,0,0.192685,3088.88,2150.4)">
            <path d="M2652.63,2742.04C2713.49,2742.04 2762.91,2791.45 2762.91,2852.32C2762.91,2913.19 2713.49,2962.61 2652.63,2962.61C2591.76,2962.61 2542.34,2913.19 2542.34,2852.32C2542.34,2791.45 2591.76,2742.04 2652.63,2742.04ZM2652.63,2774.47C2609.66,2774.47 2574.78,2809.36 2574.78,2852.32C2574.78,2895.29 2609.66,2930.17 2652.63,2930.17C2695.59,2930.17 2730.47,2895.29 2730.47,2852.32C2730.47,2809.36 2695.59,2774.47 2652.63,2774.47Z"/>
        </g>
        <g transform="matrix(0.192685,0,0,0.192685,4288.88,2150.4)">
            <path d="M2652.63,2742.04C2713.49,2742.04 2762.91,2791.45 2762.91,2852.32C2762.91,2913.19 2713.49,2962.61 2652.63,2962.61C2591.76,2962.61 2542.34,2913.19 2542.34,2852.32C2542.34,2791.45 2591.76,2742.04 2652.63,2742.04ZM2652.63,2774.47C2609.66,2774.47 2574.78,2809.36 2574.78,2852.32C2574.78,2895.29 2609.66,2930.17 2652.63,2930.17C2695.59,2930.17 2730.47,2895.29 2730.47,2852.32C2730.47,2809.36 2695.59,2774.47 2652.63,2774.47Z"/>
        </g>
        <g transform="matrix(0.361284,0,0,0.361284,2341.65,2127.1)">
            <path d="M2652.63,2757.18C2705.14,2757.18 2747.77,2799.81 2747.77,2852.32C2747.77,2904.84 2705.14,2947.47 2652.63,2947.47C2600.11,2947.47 2557.48,2904.84 2557.48,2852.32C2557.48,2799.81 2600.11,2757.18 2652.63,2757.18ZM2652.63,2774.47C2609.66,2774.47 2574.78,2809.36 2574.78,2852.32C2574.78,2895.29 2609.66,2930.17 2652.63,2930.17C2695.59,2930.17 2730.47,2895.29 2730.47,2852.32C2730.47,2809.36 2695.59,2774.47 2652.63,2774.47Z"/>
        </g>
        <g transform="matrix(0.361284,0,0,0.361284,2341.65,1977.13)">
            <path d="M2652.63,2757.18C2705.14,2757.18 2747.77,2799.81 2747.77,2852.32C2747.77,2904.84 2705.14,2947.47 2652.63,2947.47C2600.11,2947.47 2557.48,2904.84 2557.48,2852.32C2557.48,2799.81 2600.11,2757.18 2652.63,2757.18ZM2652.63,2774.47C2609.66,2774.47 2574.78,2809.36 2574.78,2852.32C2574.78,2895.29 2609.66,2930.17 2652.63,2930.17C2695.59,2930.17 2730.47,2895.29 2730.47,2852.32C2730.47,2809.36 2695.59,2774.47 2652.63,2774.47Z"/>
        </g>
        <g transform="matrix(0.361284,0,0,0.361284,2116.65,2127.1)">
            <path d="M2652.63,2757.18C2705.14,2757.18 2747.77,2799.81 2747.77,2852.32C2747.77,2904.84 2705.14,2947.47 2652.63,2947.47C2600.11,2947.47 2557.48,2904.84 2557.48,2852.32C2557.48,2799.81 2600.11,2757.18 2652.63,2757.18ZM2652.63,2774.47C2609.66,2774.47 2574.78,2809.36 2574.78,2852.32C2574.78,2895.29 2609.66,2930.17 2652.63,2930.17C2695.59,2930.17 2730.47,2895.29 2730.47,2852.32C2730.47,2809.36 2695.59,2774.47 2652.63,2774.47Z"/>
        </g>
        <g transform="matrix(0.361284,0,0,0.361284,2116.65,1977.13)">
            <path d="M2652.63,2757.18C2705.14,2757.18 2747.77,2799.81 2747.77,2852.32C2747.77,2904.84 2705.14,2947.47 2652.63,2947.47C2600.11,2947.47 2557.48,2904.84 2557.48,2852.32C2557.48,2799.81 2600.11,2757.18 2652.63,2757.18ZM2652.63,2774.47C2609.66,2774.47 2574.78,2809.36 2574.78,2852.32C2574.78,2895.29 2609.66,2930.17 2652.63,2930.17C2695.59,2930.17 2730.47,2895.29 2730.47,2852.32C2730.47,2809.36 2695.59,2774.47 2652.63,2774.47Z"/>
        </g>
    </g>
    <g transform="matrix(-1,-1.21431e-16,1.21431e-16,-1,5571.74,3430.25)">
        <g transform="matrix(1.24659,-2.48065e-16,2.48065e-16,1.24659,-935.644,650.406)">
            <path d="M5082.97,507.336C5097.65,705.228 5121.89,1438.25 5121.38,1466.87C5120.84,1496.7 5105.1,1549.96 5080.45,1613.71C5023.47,1761.1 4919.14,1965.21 4850.22,2063.76C4835.22,2085.21 4821.85,2101.71 4810.98,2111.69C4802.74,2119.26 4795.54,2123.16 4790.08,2123.56C4746.03,2126.83 4610.12,2130.7 4401.52,2133.64C4399.84,2133.67 4398.22,2133.08 4396.8,2131.57C4395.76,2130.47 4394.68,2128.29 4393.71,2125.45C4392.7,2122.51 4391.57,2118.57 4389.45,2115.4C4387.96,2113.19 4385.87,2111.41 4382.54,2111.46C4374.83,2111.57 4374.33,2118.13 4373.07,2121.73C4371.44,2126.42 4368.69,2128.79 4365.26,2128.83C4360.69,2128.89 4357.7,2128.95 4353.08,2129.01C4350.05,2129.05 4347,2127.03 4344.38,2123.13C4343.08,2121.21 4341.74,2118.77 4340.02,2116.56C4338.25,2114.29 4336.03,2112.16 4332.46,2112.29C4324.22,2112.57 4322.82,2119.32 4320.97,2123.05C4318.89,2127.25 4316.12,2129.45 4312.76,2129.49C4309.09,2129.53 4303.8,2129.57 4300.1,2129.62C4297.93,2129.65 4295.58,2128.53 4293.94,2125.36C4293.34,2124.19 4292.73,2122.49 4291.86,2120.68C4290.54,2117.95 4288.27,2114.84 4282.73,2114.98C4277.92,2115.1 4275.24,2117.8 4273.47,2120.8C4271.91,2123.44 4270.94,2126.31 4270.06,2128.57C4268.98,2131.32 4267.81,2133.4 4266.65,2134.48C4265.3,2135.74 4263.8,2136.3 4262.19,2136.32C3522.8,2144.94 2269.08,2145.2 2159.04,2121.42C2129.97,2115.14 2102.98,2097.36 2079.52,2074.69C2044.9,2041.23 2017.93,1997.18 2002.99,1965.09C1979.58,1914.78 1991.6,1855.38 2004.68,1802.93C2015.22,1760.63 2058.49,1691.1 2122.22,1608.74C2269.85,1417.98 2527.23,1157.29 2735.8,1005.51C3358.95,552.028 4149.74,310.422 4634.21,316.823C4777.08,318.71 4906.03,341.473 4988.32,385.883C5044.57,416.24 5079.22,456.794 5082.97,507.336ZM5077.97,507.707C5068.88,385.288 4870.69,324.961 4634.15,321.836C4150.43,315.445 3360.93,556.792 2738.74,1009.57C2441.28,1226.04 2044.37,1664.41 2009.54,1804.14C1996.73,1855.52 1984.61,1913.69 2007.54,1962.97C2032.09,2015.73 2089.58,2101.28 2160.1,2116.52C2270.09,2140.29 3523.14,2139.92 4262.14,2131.3C4266.57,2131.25 4266.05,2110.37 4282.61,2109.97C4297.48,2109.61 4296.77,2124.65 4300.04,2124.61C4303.74,2124.56 4309.03,2124.52 4312.7,2124.47C4318.34,2124.4 4316.72,2107.8 4332.29,2107.28C4345.25,2106.84 4347.45,2124.07 4353.02,2124C4357.64,2123.94 4360.62,2123.88 4365.19,2123.82C4370.49,2123.75 4367,2106.67 4382.46,2106.44C4397.71,2106.22 4397.41,2128.69 4401.45,2128.63C4609.89,2125.69 4745.69,2121.83 4789.71,2118.56C4848.67,2114.19 5114.17,1589.62 5116.36,1466.78C5116.88,1438.17 5092.64,705.504 5077.97,507.707Z"/>
        </g>
        <g transform="matrix(0.99922,-0.0395014,0.0395014,0.99922,-36.7697,167.043)">
            <path d="M5286.94,1816.27L5286.94,2096.07C5286.94,2108.5 5276.85,2118.59 5264.42,2118.59L5231.89,2118.59C5219.46,2118.59 5209.37,2108.5 5209.37,2096.07L5209.37,1816.27C5209.37,1803.84 5219.46,1793.75 5231.89,1793.75L5264.42,1793.75C5276.85,1793.75 5286.94,1803.84 5286.94,1816.27ZM5280.69,1816.27C5280.69,1807.29 5273.4,1800 5264.42,1800L5231.89,1800C5222.91,1800 5215.62,1807.29 5215.62,1816.27L5215.62,2096.07C5215.62,2105.05 5222.91,2112.34 5231.89,2112.34L5264.42,2112.34C5273.4,2112.34 5280.69,2105.05 5280.69,2096.07L5280.69,1816.27Z"/>
        </g>
        <g transform="matrix(0.648622,0,0,0.648622,537.012,976.874)">
            <path d="M2087.11,2817.67C2251.98,2817.67 2385.82,2951.51 2385.82,3116.38C2385.82,3281.24 2251.98,3415.09 2087.11,3415.09C1922.25,3415.09 1788.4,3281.24 1788.4,3116.38C1788.4,2951.51 1922.25,2817.67 2087.11,2817.67ZM2087.11,2827.3C1927.57,2827.3 1798.04,2956.83 1798.04,3116.38C1798.04,3275.92 1927.57,3405.45 2087.11,3405.45C2246.66,3405.45 2376.19,3275.92 2376.19,3116.38C2376.19,2956.83 2246.66,2827.3 2087.11,2827.3Z"/>
        </g>
        <g transform="matrix(0.361284,0,0,0.361284,1891.65,2127.1)">
            <path d="M2652.63,2757.18C2705.14,2757.18 2747.77,2799.81 2747.77,2852.32C2747.77,2904.84 2705.14,2947.47 2652.63,2947.47C2600.11,2947.47 2557.48,2904.84 2557.48,2852.32C2557.48,2799.81 2600.11,2757.18 2652.63,2757.18ZM2652.63,2774.47C2609.66,2774.47 2574.78,2809.36 2574.78,2852.32C2574.78,2895.29 2609.66,2930.17 2652.63,2930.17C2695.59,2930.17 2730.47,2895.29 2730.47,2852.32C2730.47,2809.36 2695.59,2774.47 2652.63,2774.47Z"/>
        </g>
        <g transform="matrix(0.361284,0,0,0.361284,1891.65,1977.13)">
            <path d="M2652.63,2757.18C2705.14,2757.18 2747.77,2799.81 2747.77,2852.32C2747.77,2904.84 2705.14,2947.47 2652.63,2947.47C2600.11,2947.47 2557.48,2904.84 2557.48,2852.32C2557.48,2799.81 2600.11,2757.18 2652.63,2757.18ZM2652.63,2774.47C2609.66,2774.47 2574.78,2809.36 2574.78,2852.32C2574.78,2895.29 2609.66,2930.17 2652.63,2930.17C2695.59,2930.17 2730.47,2895.29 2730.47,2852.32C2730.47,2809.36 2695.59,2774.47 2652.63,2774.47Z"/>
        </g>
        <g transform="matrix(0.192685,0,0,0.192685,3088.88,1100.4)">
            <path d="M2652.63,2742.04C2713.49,2742.04 2762.91,2791.45 2762.91,2852.32C2762.91,2913.19 2713.49,2962.61 2652.63,2962.61C2591.76,2962.61 2542.34,2913.19 2542.34,2852.32C2542.34,2791.45 2591.76,2742.04 2652.63,2742.04ZM2652.63,2774.47C2609.66,2774.47 2574.78,2809.36 2574.78,2852.32C2574.78,2895.29 2609.66,2930.17 2652.63,2930.17C2695.59,2930.17 2730.47,2895.29 2730.47,2852.32C2730.47,2809.36 2695.59,2774.47 2652.63,2774.47Z"/>
        </g>
        <g transform="matrix(0.192685,0,0,0.192685,4288.88,800.401)">
            <path d="M2652.63,2742.04C2713.49,2742.04 2762.91,2791.45 2762.91,2852.32C2762.91,2913.19 2713.49,2962.61 2652.63,2962.61C2591.76,2962.61 2542.34,2913.19 2542.34,2852.32C2542.34,2791.45 2591.76,2742.04 2652.63,2742.04ZM2652.63,2774.47C2609.66,2774.47 2574.78,2809.36 2574.78,2852.32C2574.78,2895.29 2609.66,2930.17 2652.63,2930.17C2695.59,2930.17 2730.47,2895.29 2730.47,2852.32C2730.47,2809.36 2695.59,2774.47 2652.63,2774.47Z"/>
        </g>
        <g transform="matrix(0.192685,0,0,0.192685,3088.88,2150.4)">
            <path d="M2652.63,2742.04C2713.49,2742.04 2762.91,2791.45 2762.91,2852.32C2762.91,2913.19 2713.49,2962.61 2652.63,2962.61C2591.76,2962.61 2542.34,2913.19 2542.34,2852.32C2542.34,2791.45 2591.76,2742.04 2652.63,2742.04ZM2652.63,2774.47C2609.66,2774.47 2574.78,2809.36 2574.78,2852.32C2574.78,2895.29 2609.66,2930.17 2652.63,2930.17C2695.59,2930.17 2730.47,2895.29 2730.47,2852.32C2730.47,2809.36 2695.59,2774.47 2652.63,2774.47Z"/>
        </g>
        <g transform="matrix(0.192685,0,0,0.192685,4288.88,2150.4)">
            <path d="M2652.63,2742.04C2713.49,2742.04 2762.91,2791.45 2762.91,2852.32C2762.91,2913.19 2713.49,2962.61 2652.63,2962.61C2591.76,2962.61 2542.34,2913.19 2542.34,2852.32C2542.34,2791.45 2591.76,2742.04 2652.63,2742.04ZM2652.63,2774.47C2609.66,2774.47 2574.78,2809.36 2574.78,2852.32C2574.78,2895.29 2609.66,2930.17 2652.63,2930.17C2695.59,2930.17 2730.47,2895.29 2730.47,2852.32C2730.47,2809.36 2695.59,2774.47 2652.63,2774.47Z"/>
        </g>
        <g transform="matrix(0.361284,0,0,0.361284,2341.65,2127.1)">
            <path d="M2652.63,2757.18C2705.14,2757.18 2747.77,2799.81 2747.77,2852.32C2747.77,2904.84 2705.14,2947.47 2652.63,2947.47C2600.11,2947.47 2557.48,2904.84 2557.48,2852.32C2557.48,2799.81 2600.11,2757.18 2652.63,2757.18ZM2652.63,2774.47C2609.66,2774.47 2574.78,2809.36 2574.78,2852.32C2574.78,2895.29 2609.66,2930.17 2652.63,2930.17C2695.59,2930.17 2730.47,2895.29 2730.47,2852.32C2730.47,2809.36 2695.59,2774.47 2652.63,2774.47Z"/>
        </g>
        <g transform="matrix(0.361284,0,0,0.361284,2341.65,1977.13)">
            <path d="M2652.63,2757.18C2705.14,2757.18 2747.77,2799.81 2747.77,2852.32C2747.77,2904.84 2705.14,2947.47 2652.63,2947.47C2600.11,2947.47 2557.48,2904.84 2557.48,2852.32C2557.48,2799.81 2600.11,2757.18 2652.63,2757.18ZM2652.63,2774.47C2609.66,2774.47 2574.78,2809.36 2574.78,2852.32C2574.78,2895.29 2609.66,2930.17 2652.63,2930.17C2695.59,2930.17 2730.47,2895.29 2730.47,2852.32C2730.47,2809.36 2695.59,2774.47 2652.63,2774.47Z"/>
        </g>
        <g transform="matrix(0.361284,0,0,0.361284,2116.65,2127.1)">
            <path d="M2652.63,2757.18C2705.14,2757.18 2747.77,2799.81 2747.77,2852.32C2747.77,2904.84 2705.14,2947.47 2652.63,2947.47C2600.11,2947.47 2557.48,2904.84 2557.48,2852.32C2557.48,2799.81 2600.11,2757.18 2652.63,2757.18ZM2652.63,2774.47C2609.66,2774.47 2574.78,2809.36 2574.78,2852.32C2574.78,2895.29 2609.66,2930.17 2652.63,2930.17C2695.59,2930.17 2730.47,2895.29 2730.47,2852.32C2730.47,2809.36 2695.59,2774.47 2652.63,2774.47Z"/>
        </g>
        <g transform="matrix(0.361284,0,0,0.361284,2116.65,1977.13)">
            <path d="M2652.63,2757.18C2705.14,2757.18 2747.77,2799.81 2747.77,2852.32C2747.77,2904.84 2705.14,2947.47 2652.63,2947.47C2600.11,2947.47 2557.48,2904.84 2557.48,2852.32C2557.48,2799.81 2600.11,2757.18 2652.63,2757.18ZM2652.63,2774.47C2609.66,2774.47 2574.78,2809.36 2574.78,2852.32C2574.78,2895.29 2609.66,2930.17 2652.63,2930.17C2695.59,2930.17 2730.47,2895.29 2730.47,2852.32C2730.47,2809.36 2695.59,2774.47 2652.63,2774.47Z"/>
        </g>
    </g>
    <g transform="matrix(0.968976,0,0,1.20432,698.159,-685.873)">
        <path d="M824.251,2666.92L824.251,2916.03C824.251,2918.89 821.363,2921.21 817.801,2921.21L508.196,2921.21C504.633,2921.21 501.745,2918.89 501.745,2916.03L501.745,2666.92C501.745,2664.05 504.633,2661.73 508.196,2661.73L817.801,2661.73C821.363,2661.73 824.251,2664.05 824.251,2666.92ZM817.801,2666.92L508.196,2666.92L508.196,2916.03L817.801,2916.03L817.801,2666.92Z"/>
    </g>
    <g transform="matrix(0.716223,0,0,1.48441,1041.16,-1888.38)">
        <path d="M363.636,3094.94L347.672,3094.94L347.672,3065.91C341.84,3068.54 334.965,3070.49 327.05,3071.75L327.05,3064.76C331.216,3064.1 335.742,3062.86 340.628,3061.02C345.513,3059.18 348.865,3057.04 350.683,3054.59L363.636,3054.59L363.636,3094.94Z" style="fill:rgb(242,13,13);fill-rule:nonzero;"/>
        <path d="M423.232,3061.88L423.232,3054.76L439.196,3054.76L439.196,3061.88L423.232,3061.88ZM423.232,3094.94L423.232,3065.83L439.196,3065.83L439.196,3094.94L423.232,3094.94Z" style="fill:rgb(242,13,13);fill-rule:nonzero;"/>
        <path d="M510.439,3094.94L494.475,3094.94L494.475,3080.08C494.475,3076.94 494.134,3074.91 493.452,3073.99C492.77,3073.06 491.662,3072.35 490.128,3071.83C488.595,3071.32 486.748,3071.07 484.589,3071.07C481.824,3071.07 479.344,3071.43 477.147,3072.16C474.95,3072.89 473.445,3073.86 472.63,3075.07C471.816,3076.27 471.409,3078.5 471.409,3081.76L471.409,3094.94L455.445,3094.94L455.445,3065.83L470.273,3065.83L470.273,3070.11C475.537,3066.82 482.165,3065.17 490.157,3065.17C493.679,3065.17 496.899,3065.48 499.815,3066.09C502.731,3066.7 504.937,3067.48 506.434,3068.43C507.93,3069.39 508.971,3070.46 509.558,3071.67C510.145,3072.88 510.439,3074.6 510.439,3076.85L510.439,3094.94Z" style="fill:rgb(242,13,13);fill-rule:nonzero;"/>
    </g>
</svg>
