<?xml version="1.0" encoding="UTF-8" standalone="no"?>
<!DOCTYPE svg PUBLIC "-//W3C//DTD SVG 1.1//EN" "http://www.w3.org/Graphics/SVG/1.1/DTD/svg11.dtd">
<svg width="100%" height="100%" viewBox="0 0 4050 2700" version="1.1" xmlns="http://www.w3.org/2000/svg" xmlns:xlink="http://www.w3.org/1999/xlink" xml:space="preserve" xmlns:serif="http://www.serif.com/" style="fill-rule:evenodd;clip-rule:evenodd;stroke-linecap:round;stroke-linejoin:round;stroke-miterlimit:1.5;">
    <g transform="matrix(1.24659,-2.48065e-16,2.48065e-16,1.24659,-2400.08,-89.4255)">
        <path d="M5077.97,507.707C5092.33,705.527 5116.88,1438.17 5116.36,1466.78C5114.17,1589.62 4858.14,2100.35 4789.71,2118.56C4669.7,2150.5 2270.74,2149.99 2160.1,2116.52C2091.04,2095.63 2027.41,2019.35 2002.86,1966.6C1979.92,1917.32 1976.68,1824.42 1994.64,1763.51C2064.78,1525.68 2598.86,1000.25 2892.95,779.221C3599.87,247.941 4134.4,170.722 4618.15,167.348C5029.41,164.479 5061.48,280.627 5077.97,507.707ZM3216.95,1867.99C3204.49,1867.99 3194.38,1878.1 3194.38,1890.55C3194.38,1903.01 3204.49,1913.12 3216.95,1913.12C3229.4,1913.12 3239.51,1903.01 3239.51,1890.55C3239.51,1878.1 3229.4,1867.99 3216.95,1867.99ZM3216.95,1988.3C3204.49,1988.3 3194.38,1998.4 3194.38,2010.86C3194.38,2023.31 3204.49,2033.42 3216.95,2033.42C3229.4,2033.42 3239.51,2023.31 3239.51,2010.86C3239.51,1998.4 3229.4,1988.3 3216.95,1988.3Z" style="fill:rgb(141,204,51);fill-opacity:0.7;stroke:rgb(94,191,64);stroke-width:10.03px;"/>
    </g>
    <g transform="matrix(1.24659,-2.48065e-16,2.48065e-16,1.24659,-2400.08,-89.6818)">
        <path d="M5077.97,507.707C5092.64,705.504 5116.88,1438.17 5116.36,1466.78C5114.17,1589.62 4848.67,2114.19 4789.71,2118.56C4745.69,2121.83 4609.89,2125.69 4401.45,2128.63C4397.41,2128.69 4397.71,2106.22 4382.46,2106.44C4367,2106.67 4370.49,2123.75 4365.19,2123.82C4360.62,2123.88 4357.64,2123.94 4353.02,2124C4347.45,2124.07 4345.25,2106.84 4332.29,2107.28C4316.72,2107.8 4318.34,2124.4 4312.7,2124.47C4309.03,2124.52 4303.74,2124.56 4300.04,2124.61C4296.77,2124.65 4297.48,2109.61 4282.61,2109.97C4266.05,2110.37 4266.57,2131.25 4262.14,2131.3C3523.14,2139.92 2270.09,2140.29 2160.1,2116.52C2089.58,2101.28 2032.09,2015.73 2007.54,1962.97C1984.61,1913.69 1996.73,1855.52 2009.54,1804.14C2044.37,1664.41 2441.28,1226.04 2738.74,1009.57C3360.93,556.792 4150.43,315.445 4634.15,321.836C4870.69,324.961 5068.88,385.288 5077.97,507.707ZM3217.29,1868.37C3204.83,1868.37 3194.72,1878.48 3194.72,1890.93C3194.72,1903.39 3204.83,1913.5 3217.29,1913.5C3229.74,1913.5 3239.85,1903.39 3239.85,1890.93C3239.85,1878.48 3229.74,1868.37 3217.29,1868.37ZM4601.06,1632.12C4594.42,1632.12 4589.03,1637.52 4589.03,1644.16C4589.03,1650.8 4594.42,1656.19 4601.06,1656.19C4607.7,1656.19 4613.09,1650.8 4613.09,1644.16C4613.09,1637.52 4607.7,1632.12 4601.06,1632.12ZM3638.43,789.829C3631.79,789.829 3626.4,795.22 3626.4,801.861C3626.4,808.503 3631.79,813.894 3638.43,813.894C3645.08,813.894 3650.47,808.503 3650.47,801.861C3650.47,795.22 3645.08,789.829 3638.43,789.829ZM3638.43,1632.12C3631.79,1632.12 3626.4,1637.52 3626.4,1644.16C3626.4,1650.8 3631.79,1656.19 3638.43,1656.19C3645.08,1656.19 3650.47,1650.8 3650.47,1644.16C3650.47,1637.52 3645.08,1632.12 3638.43,1632.12ZM3397.78,1988.68C3385.33,1988.68 3375.22,1998.79 3375.22,2011.24C3375.22,2023.69 3385.33,2033.8 3397.78,2033.8C3410.23,2033.8 3420.34,2023.69 3420.34,2011.24C3420.34,1998.79 3410.23,1988.68 3397.78,1988.68ZM5011.41,900.77C5011.13,893.573 5005.06,887.961 4997.86,888.245L4971.78,889.276C4964.58,889.561 4958.97,895.635 4959.25,902.833L4968.12,1127.11C4968.4,1134.31 4974.48,1139.92 4981.68,1139.64L5007.76,1138.61C5014.95,1138.32 5020.57,1132.25 5020.28,1125.05L5011.41,900.77ZM3036.79,1988.68C3024.34,1988.68 3014.23,1998.79 3014.23,2011.24C3014.23,2023.69 3024.34,2033.8 3036.79,2033.8C3049.25,2033.8 3059.36,2023.69 3059.36,2011.24C3059.36,1998.79 3049.25,1988.68 3036.79,1988.68ZM3036.79,1868.37C3024.34,1868.37 3014.23,1878.48 3014.23,1890.93C3014.23,1903.39 3024.34,1913.5 3036.79,1913.5C3049.25,1913.5 3059.36,1903.39 3059.36,1890.93C3059.36,1878.48 3049.25,1868.37 3036.79,1868.37ZM4601.06,549.173C4594.42,549.173 4589.03,554.564 4589.03,561.205C4589.03,567.846 4594.42,573.238 4601.06,573.238C4607.7,573.238 4613.09,567.846 4613.09,561.205C4613.09,554.564 4607.7,549.173 4601.06,549.173ZM3217.29,1988.68C3204.83,1988.68 3194.72,1998.79 3194.72,2011.24C3194.72,2023.69 3204.83,2033.8 3217.29,2033.8C3229.74,2033.8 3239.85,2023.69 3239.85,2011.24C3239.85,1998.79 3229.74,1988.68 3217.29,1988.68ZM3397.78,1868.37C3385.33,1868.37 3375.22,1878.48 3375.22,1890.93C3375.22,1903.39 3385.33,1913.5 3397.78,1913.5C3410.23,1913.5 3420.34,1903.39 3420.34,1890.93C3420.34,1878.48 3410.23,1868.37 3397.78,1868.37ZM2267.3,1732.98C2184.29,1732.98 2116.89,1800.38 2116.89,1883.39C2116.89,1966.4 2184.29,2033.8 2267.3,2033.8C2350.32,2033.8 2417.71,1966.4 2417.71,1883.39C2417.71,1800.38 2350.32,1732.98 2267.3,1732.98Z" style="fill:rgb(230,26,170);fill-opacity:0.5;stroke:rgb(230,26,170);stroke-width:10.03px;"/>
    </g>
</svg>
