<?xml version="1.0" encoding="UTF-8" standalone="no"?>
<svg
   width="100%"
   height="100%"
   viewBox="0 0 5700 3600"
   version="1.1"
   xml:space="preserve"
   style="fill-rule:evenodd;clip-rule:evenodd;stroke-linejoin:round;stroke-miterlimit:2;"
   id="svg14"
   sodipodi:docname="v2.svg"
   inkscape:version="1.4 (e7c3feb1, 2024-10-09)"
   xmlns:inkscape="http://www.inkscape.org/namespaces/inkscape"
   xmlns:sodipodi="http://sodipodi.sourceforge.net/DTD/sodipodi-0.dtd"
   xmlns="http://www.w3.org/2000/svg"
   xmlns:svg="http://www.w3.org/2000/svg"><defs
   id="defs14" /><sodipodi:namedview
   id="namedview14"
   pagecolor="#ffffff"
   bordercolor="#000000"
   borderopacity="0.25"
   inkscape:showpageshadow="2"
   inkscape:pageopacity="0.0"
   inkscape:pagecheckerboard="0"
   inkscape:deskcolor="#d1d1d1"
   inkscape:zoom="0.11590134"
   inkscape:cx="1820.5138"
   inkscape:cy="1156.1557"
   inkscape:window-width="1600"
   inkscape:window-height="825"
   inkscape:window-x="0"
   inkscape:window-y="25"
   inkscape:window-maximized="0"
   inkscape:current-layer="svg14" />
    <g
   transform="matrix(1,0,0,1,18.6791,-8.89829)"
   id="g4">
        <g
   transform="matrix(1.24659,-2.48065e-16,2.48065e-16,1.24659,-756.332,869.498)"
   id="g1">
            <path
   d="M5082.97,507.344C5097.34,705.257 5121.89,1438.25 5121.38,1466.87C5120.91,1493.01 5109.21,1536.5 5090.2,1589.04C5046.33,1710.3 4963.69,1880.4 4894.32,1995.55C4864.4,2045.23 4836.88,2084.72 4815.99,2105.84C4806.28,2115.66 4797.74,2121.62 4791,2123.41C4706.94,2145.78 3505.45,2152.4 2754.14,2142.77C2431.61,2138.64 2191.92,2131.39 2158.65,2121.32C2088.29,2100.04 2023.33,2022.46 1998.31,1968.72C1974.98,1918.58 1971.56,1824.07 1989.83,1762.1C2011,1690.32 2074.05,1592.44 2160.1,1484.67C2359.95,1234.38 2683.82,930.124 2889.94,775.213C3598.07,243.021 4133.53,165.715 4618.11,162.334C4825.69,160.886 4937.44,190.02 4999.51,247.621C5061.83,305.456 5074.61,392.269 5082.97,507.344ZM5077.97,507.707C5061.48,280.627 5029.41,164.479 4618.15,167.348C4134.4,170.722 3599.87,247.941 2892.95,779.221C2598.86,1000.25 2064.78,1525.68 1994.64,1763.51C1976.68,1824.42 1979.92,1917.32 2002.86,1966.6C2027.41,2019.35 2091.04,2095.63 2160.1,2116.52C2270.74,2149.99 4669.7,2150.5 4789.71,2118.56C4858.14,2100.35 5114.17,1589.62 5116.36,1466.78C5116.88,1438.17 5092.33,705.527 5077.97,507.707Z"
   id="path1" />
        </g>
        <g
   transform="matrix(0.361284,0,0,0.361284,2295.54,2345.72)"
   id="g2">
            <path
   d="M2652.63,2757.18C2705.14,2757.18 2747.77,2799.81 2747.77,2852.32C2747.77,2904.84 2705.14,2947.47 2652.63,2947.47C2600.11,2947.47 2557.48,2904.84 2557.48,2852.32C2557.48,2799.81 2600.11,2757.18 2652.63,2757.18ZM2652.63,2774.47C2609.66,2774.47 2574.78,2809.36 2574.78,2852.32C2574.78,2895.29 2609.66,2930.17 2652.63,2930.17C2695.59,2930.17 2730.47,2895.29 2730.47,2852.32C2730.47,2809.36 2695.59,2774.47 2652.63,2774.47Z"
   id="path2" />
        </g>
        <g
   transform="matrix(0.361284,0,0,0.361284,2295.54,2195.75)"
   id="g3">
            <path
   d="M2652.63,2757.18C2705.14,2757.18 2747.77,2799.81 2747.77,2852.32C2747.77,2904.84 2705.14,2947.47 2652.63,2947.47C2600.11,2947.47 2557.48,2904.84 2557.48,2852.32C2557.48,2799.81 2600.11,2757.18 2652.63,2757.18ZM2652.63,2774.47C2609.66,2774.47 2574.78,2809.36 2574.78,2852.32C2574.78,2895.29 2609.66,2930.17 2652.63,2930.17C2695.59,2930.17 2730.47,2895.29 2730.47,2852.32C2730.47,2809.36 2695.59,2774.47 2652.63,2774.47Z"
   id="path3" />
        </g>
    </g>
    <g
   transform="matrix(-1,0,0,-1,5679.96,3607.08)"
   id="g8">
        <g
   transform="matrix(1.24659,-2.48065e-16,2.48065e-16,1.24659,-756.332,869.498)"
   id="g5">
            <path
   d="M5082.97,507.344C5097.34,705.257 5121.89,1438.25 5121.38,1466.87C5120.91,1493.01 5109.21,1536.5 5090.2,1589.04C5046.33,1710.3 4963.69,1880.4 4894.32,1995.55C4864.4,2045.23 4836.88,2084.72 4815.99,2105.84C4806.28,2115.66 4797.74,2121.62 4791,2123.41C4706.94,2145.78 3505.45,2152.4 2754.14,2142.77C2431.61,2138.64 2191.92,2131.39 2158.65,2121.32C2088.29,2100.04 2023.33,2022.46 1998.31,1968.72C1974.98,1918.58 1971.56,1824.07 1989.83,1762.1C2011,1690.32 2074.05,1592.44 2160.1,1484.67C2359.95,1234.38 2683.82,930.124 2889.94,775.213C3598.07,243.021 4133.53,165.715 4618.11,162.334C4825.69,160.886 4937.44,190.02 4999.51,247.621C5061.83,305.456 5074.61,392.269 5082.97,507.344ZM5077.97,507.707C5061.48,280.627 5029.41,164.479 4618.15,167.348C4134.4,170.722 3599.87,247.941 2892.95,779.221C2598.86,1000.25 2064.78,1525.68 1994.64,1763.51C1976.68,1824.42 1979.92,1917.32 2002.86,1966.6C2027.41,2019.35 2091.04,2095.63 2160.1,2116.52C2270.74,2149.99 4669.7,2150.5 4789.71,2118.56C4858.14,2100.35 5114.17,1589.62 5116.36,1466.78C5116.88,1438.17 5092.33,705.527 5077.97,507.707Z"
   id="path4" />
        </g>
        <g
   transform="matrix(0.361284,0,0,0.361284,2295.54,2345.72)"
   id="g6">
            <path
   d="M2652.63,2757.18C2705.14,2757.18 2747.77,2799.81 2747.77,2852.32C2747.77,2904.84 2705.14,2947.47 2652.63,2947.47C2600.11,2947.47 2557.48,2904.84 2557.48,2852.32C2557.48,2799.81 2600.11,2757.18 2652.63,2757.18ZM2652.63,2774.47C2609.66,2774.47 2574.78,2809.36 2574.78,2852.32C2574.78,2895.29 2609.66,2930.17 2652.63,2930.17C2695.59,2930.17 2730.47,2895.29 2730.47,2852.32C2730.47,2809.36 2695.59,2774.47 2652.63,2774.47Z"
   id="path5" />
        </g>
        <g
   transform="matrix(0.361284,0,0,0.361284,2295.54,2195.75)"
   id="g7">
            <path
   d="M2652.63,2757.18C2705.14,2757.18 2747.77,2799.81 2747.77,2852.32C2747.77,2904.84 2705.14,2947.47 2652.63,2947.47C2600.11,2947.47 2557.48,2904.84 2557.48,2852.32C2557.48,2799.81 2600.11,2757.18 2652.63,2757.18ZM2652.63,2774.47C2609.66,2774.47 2574.78,2809.36 2574.78,2852.32C2574.78,2895.29 2609.66,2930.17 2652.63,2930.17C2695.59,2930.17 2730.47,2895.29 2730.47,2852.32C2730.47,2809.36 2695.59,2774.47 2652.63,2774.47Z"
   id="path6" />
        </g>
    </g>
    <g
   transform="matrix(1,0,0,1,-1115.59,699.051)"
   id="g13">
        <g
   transform="matrix(0.968976,0,0,1.20432,698.159,-685.873)"
   id="g9">
            <path
   d="M824.251,2666.92L824.251,2916.03C824.251,2918.89 821.363,2921.21 817.801,2921.21L508.196,2921.21C504.633,2921.21 501.745,2918.89 501.745,2916.03L501.745,2666.92C501.745,2664.05 504.633,2661.73 508.196,2661.73L817.801,2661.73C821.363,2661.73 824.251,2664.05 824.251,2666.92ZM817.801,2666.92L508.196,2666.92L508.196,2916.03L817.801,2916.03L817.801,2666.92Z"
   id="path8" />
        </g>
        <g
   transform="matrix(0.716223,0,0,1.48441,1041.16,-1888.38)"
   id="g10">
            <path
   d="M363.636,3094.94L347.672,3094.94L347.672,3065.91C341.84,3068.54 334.965,3070.49 327.05,3071.75L327.05,3064.76C331.216,3064.1 335.742,3062.86 340.628,3061.02C345.513,3059.18 348.865,3057.04 350.683,3054.59L363.636,3054.59L363.636,3094.94Z"
   style="fill:rgb(242,13,13);fill-rule:nonzero;"
   id="path9" />
        </g>
        <g
   transform="matrix(0.716223,0,0,1.48441,1041.16,-1888.38)"
   id="g11">
            <path
   d="M423.232,3061.88L423.232,3054.76L439.196,3054.76L439.196,3061.88L423.232,3061.88ZM423.232,3094.94L423.232,3065.83L439.196,3065.83L439.196,3094.94L423.232,3094.94Z"
   style="fill:rgb(242,13,13);fill-rule:nonzero;"
   id="path10" />
        </g>
        <g
   transform="matrix(0.716223,0,0,1.48441,1041.16,-1888.38)"
   id="g12">
            <path
   d="M510.439,3094.94L494.475,3094.94L494.475,3080.08C494.475,3076.94 494.134,3074.91 493.452,3073.99C492.77,3073.06 491.662,3072.35 490.128,3071.83C488.595,3071.32 486.748,3071.07 484.589,3071.07C481.824,3071.07 479.344,3071.43 477.147,3072.16C474.95,3072.89 473.445,3073.86 472.63,3075.07C471.816,3076.27 471.409,3078.5 471.409,3081.76L471.409,3094.94L455.445,3094.94L455.445,3065.83L470.273,3065.83L470.273,3070.11C475.537,3066.82 482.165,3065.17 490.157,3065.17C493.679,3065.17 496.899,3065.48 499.815,3066.09C502.731,3066.7 504.937,3067.48 506.434,3068.43C507.93,3069.39 508.971,3070.46 509.558,3071.67C510.145,3072.88 510.439,3074.6 510.439,3076.85L510.439,3094.94Z"
   style="fill:rgb(242,13,13);fill-rule:nonzero;"
   id="path11" />
        </g>
    </g>
    
</svg>
